<?xml version="1.0" standalone="no"?>
<!DOCTYPE svg PUBLIC "-//W3C//DTD SVG 20010904//EN"
 "http://www.w3.org/TR/2001/REC-SVG-20010904/DTD/svg10.dtd">
<svg version="1.0" xmlns="http://www.w3.org/2000/svg"
 width="16.000000pt" height="16.000000pt" viewBox="0 0 16.000000 16.000000"
 preserveAspectRatio="xMidYMid meet">
<metadata>
Created by potrace 1.11, written by Peter Selinger 2001-2013
</metadata>
<g transform="translate(0.000000,16.000000) scale(0.006154,-0.006154)"
fill="#000000" stroke="none">
<path d="M1156 2580 c-38 -5 -103 -16 -145 -26 -417 -92 -778 -413 -925 -822
-49 -138 -69 -262 -69 -432 0 -281 64 -490 223 -728 107 -161 299 -330 473
-419 279 -141 609 -177 910 -98 656 170 1066 819 941 1487 -83 441 -407 819
-832 972 -160 57 -414 87 -576 66z m291 -35 c227 -53 415 -244 469 -473 21
-89 15 -254 -13 -334 l-20 -58 51 -1 c28 -1 81 -1 118 1 58 2 68 -1 79 -18 8
-13 17 -18 24 -13 5 5 48 12 95 15 47 3 115 9 151 12 54 5 68 3 80 -12 11 -14
15 -70 17 -285 4 -314 -1 -349 -68 -414 l-41 -40 -82 1 c-45 1 -119 2 -164 2
-49 0 -84 5 -88 12 -5 8 -15 5 -31 -11 -22 -21 -28 -21 -141 -14 -65 4 -156 7
-201 6 -66 -2 -88 1 -102 14 -12 11 -20 13 -25 6 -9 -15 -251 -15 -260 0 -5 6
-13 3 -22 -10 -13 -19 -24 -21 -143 -21 -115 0 -131 2 -141 18 -11 18 -13 18
-47 0 -42 -21 -92 -22 -143 -4 -58 20 -75 7 -101 -76 -29 -94 -31 -253 -4
-343 51 -171 176 -323 327 -395 47 -22 114 -47 149 -54 87 -19 38 -20 -76 -1
-522 85 -948 506 -1038 1030 -20 115 -20 317 -1 431 90 514 507 935 1020 1027
107 20 294 21 372 2z"/>
<path d="M1215 2081 c-129 -79 -118 -264 19 -316 178 -68 324 162 184 292 -49
46 -148 58 -203 24z"/>
<path d="M1710 1581 l0 -51 40 0 40 0 0 -275 0 -275 40 0 40 0 0 275 0 275 40
0 40 0 0 45 0 45 -43 0 c-24 0 -78 3 -120 6 l-77 7 0 -52z"/>
<path d="M190 1300 l0 -320 40 0 40 0 0 116 c0 104 2 115 17 112 13 -2 27 -35
52 -119 l36 -116 82 -1 c81 -1 83 -1 83 22 0 13 3 38 6 55 6 29 9 31 50 31 43
0 44 -1 44 -32 0 -48 12 -60 52 -56 l35 3 -43 300 c-24 165 -43 306 -44 313 0
8 -17 12 -50 12 -31 0 -52 -5 -55 -12 -3 -7 -21 -143 -40 -302 -19 -159 -37
-292 -40 -294 -2 -3 -7 1 -9 9 -3 8 -19 60 -37 115 l-32 101 21 27 c61 78 46
280 -26 336 -20 16 -40 20 -103 20 l-79 0 0 -320z m136 236 c16 -12 19 -29 22
-98 3 -97 -10 -131 -51 -136 l-27 -3 0 119 c0 65 3 122 7 125 10 11 28 8 49
-7z m278 -251 c22 -124 22 -125 -15 -125 l-31 0 6 68 c9 94 18 153 21 150 2
-2 11 -44 19 -93z"/>
<path d="M799 1597 c-44 -29 -58 -79 -65 -232 -7 -136 7 -289 31 -334 17 -34
61 -61 100 -61 71 0 111 58 122 175 l6 62 -33 6 c-18 4 -36 7 -40 7 -4 0 -10
-26 -13 -58 -8 -70 -14 -89 -32 -96 -44 -16 -59 66 -53 276 5 147 10 173 33
182 25 9 43 -21 50 -84 l7 -60 40 0 41 0 -7 66 c-4 36 -14 83 -23 105 -27 68
-101 89 -164 46z"/>
<path d="M1030 1295 l0 -325 46 0 47 0 -7 61 c-3 34 -6 181 -6 325 l0 264 -40
0 -40 0 0 -325z"/>
<path d="M1225 1610 c-3 -5 -21 -137 -40 -292 -19 -156 -36 -298 -39 -315 -5
-33 -5 -33 39 -33 l44 0 3 53 3 52 42 3 c45 3 45 2 55 -63 2 -15 12 -21 41
-23 25 -2 37 1 37 10 0 7 -19 149 -42 316 l-43 302 -47 0 c-26 0 -50 -4 -53
-10z m39 -216 c9 -24 7 -44 -4 -44 -12 0 -30 41 -23 53 7 12 21 8 27 -9z m36
-53 c0 -5 -7 -14 -16 -22 -14 -11 -14 -13 1 -22 15 -8 15 -10 -1 -28 -16 -18
-15 -19 10 -29 15 -5 24 -14 21 -20 -9 -14 -61 -12 -73 3 -19 23 -11 71 16
100 26 27 42 34 42 18z m40 -199 c0 -15 -5 -22 -12 -20 -16 6 -22 33 -13 56 5
14 7 14 15 2 6 -8 10 -25 10 -38z"/>
<path d="M1620 1453 c0 -96 -4 -162 -9 -155 -4 8 -28 81 -52 163 l-44 149 -42
0 -43 0 0 -315 0 -315 44 0 43 0 -5 168 c-5 174 1 192 30 92 9 -30 31 -101 48
-157 l32 -103 39 0 39 0 0 320 0 320 -40 0 -40 0 0 -167z"/>
<path d="M1981 1598 c-6 -13 -24 -142 -41 -288 -16 -146 -33 -282 -36 -302
l-6 -38 41 0 c43 0 47 5 53 75 3 27 6 30 44 33 44 3 54 -8 54 -65 0 -20 5 -23
40 -23 26 0 40 5 40 13 -1 6 -20 147 -43 312 l-43 300 -47 3 c-41 3 -48 0 -56
-20z m68 -313 c7 -44 15 -90 18 -102 5 -21 1 -23 -32 -23 -30 0 -35 3 -31 18
3 9 8 59 12 110 4 51 10 90 14 85 4 -4 13 -44 19 -88z"/>
<path d="M2355 1589 c13 -60 11 -462 -3 -486 -17 -30 -48 -29 -68 2 -14 22
-16 55 -12 259 l3 234 -40 5 c-22 2 -42 2 -45 0 -2 -2 -4 -115 -5 -251 0 -270
7 -316 52 -351 18 -15 40 -21 75 -21 41 0 54 5 78 28 15 16 34 46 40 68 16 51
24 285 15 430 l-7 114 -45 0 -45 0 7 -31z"/>
</g>
</svg>
